<?xml version="1.0" encoding="UTF-8" standalone="no"?>
<!DOCTYPE svg PUBLIC "-//W3C//DTD SVG 1.1//EN" "http://www.w3.org/Graphics/SVG/1.1/DTD/svg11.dtd">
<svg width="100%" height="100%" viewBox="0 0 2481 2481" version="1.1" xmlns="http://www.w3.org/2000/svg" xmlns:xlink="http://www.w3.org/1999/xlink" xml:space="preserve" xmlns:serif="http://www.serif.com/" style="fill-rule:evenodd;clip-rule:evenodd;stroke-linejoin:round;stroke-miterlimit:2;">
    <g transform="matrix(1.51336,0,0,1.51336,-81.3534,-88.2355)">
        <path d="M1338.75,1266.69L1450.76,1490.71L295.696,1490.71L407.704,1266.69L1338.75,1266.69Z" style="fill:rgb(196,196,196);"/>
    </g>
    <g transform="matrix(1.51336,0,0,1.51336,-81.3534,-88.2355)">
        <path d="M1321.26,1231.71L425.196,1231.71L519.712,1042.68L1226.74,1042.68L1321.26,1231.71Z" style="fill:rgb(196,196,196);"/>
    </g>
    <g transform="matrix(1.51336,0,0,1.51336,-81.3534,-88.2355)">
        <path d="M1209.25,1007.69L537.204,1007.69L631.72,818.663L1114.74,818.663L1209.25,1007.69Z" style="fill:rgb(196,196,196);"/>
    </g>
    <g transform="matrix(1.51336,0,0,1.51336,-81.3534,-88.2355)">
        <path d="M1097.24,783.678L649.212,783.678L743.728,594.647L1002.73,594.647L1097.24,783.678Z"/>
    </g>
    <g transform="matrix(1.51336,0,0,1.51336,-81.3534,-88.2355)">
        <path d="M985.236,559.662L761.22,559.662L873.228,335.646L985.236,559.662Z" style="fill:rgb(204,160,31);"/>
    </g>
    <g transform="matrix(1,0,0,1,-102.652,63.55)">
        <text x="1267.49px" y="599.425px" style="font-family:'Arial-BoldMT', 'Arial', sans-serif;font-weight:700;font-size:58.333px;">Goud</text>
    </g>
    <g transform="matrix(1,0,0,1,-168.975,191.742)">
        <text x="1246.45px" y="753.747px" style="font-family:'Arial-BoldMT', 'Arial', sans-serif;font-weight:700;font-size:58.333px;fill:white;">De Centrale</text>
        <text x="1337.23px" y="813.989px" style="font-family:'Arial-BoldMT', 'Arial', sans-serif;font-weight:700;font-size:58.333px;fill:white;">Bank</text>
    </g>
    <g transform="matrix(1,0,0,1,-586.027,352.263)">
        <text x="1571.76px" y="865.849px" style="font-family:'Arial-BoldMT', 'Arial', sans-serif;font-weight:700;font-size:58.333px;">Eerste ontvangers</text>
        <text x="1646.37px" y="926.091px" style="font-family:'Arial-BoldMT', 'Arial', sans-serif;font-weight:700;font-size:58.333px;">van ﬁat geld:</text>
        <text x="1458.21px" y="986.333px" style="font-family:'ArialMT', 'Arial', sans-serif;font-size:58.333px;">Regeringen, grote bedrĳven,</text>
        <text x="1432.25px" y="1046.57px" style="font-family:'ArialMT', 'Arial', sans-serif;font-size:58.333px;">investeerders en grote banken</text>
    </g>
    <g transform="matrix(1,0,0,1,-585.864,751.878)">
        <text x="1385.41px" y="865.849px" style="font-family:'Arial-BoldMT', 'Arial', sans-serif;font-weight:700;font-size:58.333px;">Latere ontvangers van ﬁat geld:</text>
        <text x="1370.65px" y="926.091px" style="font-family:'ArialMT', 'Arial', sans-serif;font-size:58.333px;">Kleinere banken, kleinere bedrĳven</text>
    </g>
    <g transform="matrix(1,0,0,1,-585.479,1093.04)">
        <text x="1370.83px" y="865.849px" style="font-family:'Arial-BoldMT', 'Arial', sans-serif;font-weight:700;font-size:58.333px;">Laatste ontvangers van ﬁat geld:</text>
        <text x="1263.64px" y="926.091px" style="font-family:'ArialMT', 'Arial', sans-serif;font-size:58.333px;">Armen, gepensioneerden, mensen in slecht</text>
        <text x="1573.27px" y="986.333px" style="font-family:'ArialMT', 'Arial', sans-serif;font-size:58.333px;">betaalde loondienst</text>
    </g>
    <g transform="matrix(1.27567e-16,-2.08333,2.08333,1.27567e-16,770.157,1635.47)">
        <g id="Back">
            <path d="M258.462,19.657C258.264,19.657 258,19.67 258,19.682L258,14.018L246,23.077L258,32.018L258,25.809C258,25.719 258.945,25.657 259.5,25.657C264.426,25.657 268.512,29.182 269.817,34C270.041,33.108 270.205,32.18 270.205,31.22C270.205,24.834 264.965,19.657 258.462,19.657Z" style="fill:rgb(0,122,255);"/>
        </g>
    </g>
    <g transform="matrix(1,0,0,1,174.546,-482.139)">
        <text x="306.756px" y="1446.13px" style="font-family:'Arial-BoldMT', 'Arial', sans-serif;font-weight:700;font-size:50px;fill:rgb(0,122,255);">Creeërt leningen</text>
        <text x="324.798px" y="1497.77px" style="font-family:'Arial-BoldMT', 'Arial', sans-serif;font-weight:700;font-size:50px;fill:rgb(0,122,255);">en vraagt rente</text>
    </g>
    <g transform="matrix(1.27567e-16,-2.08333,2.08333,1.27567e-16,592.809,1973.84)">
        <g id="Back1" serif:id="Back">
            <path d="M258.462,19.657C258.264,19.657 258,19.67 258,19.682L258,14.018L246,23.077L258,32.018L258,25.809C258,25.719 258.945,25.657 259.5,25.657C264.426,25.657 268.512,29.182 269.817,34C270.041,33.108 270.205,32.18 270.205,31.22C270.205,24.834 264.965,19.657 258.462,19.657Z" style="fill:rgb(0,122,255);"/>
        </g>
    </g>
    <g transform="matrix(1,0,0,1,-2.80261,-143.763)">
        <text x="306.756px" y="1446.13px" style="font-family:'Arial-BoldMT', 'Arial', sans-serif;font-weight:700;font-size:50px;fill:rgb(0,122,255);">Creeërt leningen</text>
        <text x="324.798px" y="1497.77px" style="font-family:'Arial-BoldMT', 'Arial', sans-serif;font-weight:700;font-size:50px;fill:rgb(0,122,255);">en vraagt rente</text>
    </g>
    <g transform="matrix(1.27567e-16,-2.08333,2.08333,1.27567e-16,423.25,2303.69)">
        <g id="Back2" serif:id="Back">
            <path d="M258.462,19.657C258.264,19.657 258,19.67 258,19.682L258,14.018L246,23.077L258,32.018L258,25.809C258,25.719 258.945,25.657 259.5,25.657C264.426,25.657 268.512,29.182 269.817,34C270.041,33.108 270.205,32.18 270.205,31.22C270.205,24.834 264.965,19.657 258.462,19.657Z" style="fill:rgb(0,122,255);"/>
        </g>
    </g>
    <g transform="matrix(1,0,0,1,-172.362,186.084)">
        <text x="306.756px" y="1446.13px" style="font-family:'Arial-BoldMT', 'Arial', sans-serif;font-weight:700;font-size:50px;fill:rgb(0,122,255);">Creeërt leningen</text>
        <text x="324.798px" y="1497.77px" style="font-family:'Arial-BoldMT', 'Arial', sans-serif;font-weight:700;font-size:50px;fill:rgb(0,122,255);">en vraagt rente</text>
    </g>
    <g transform="matrix(1,0,0,1,855.295,85.0934)">
        <text x="-657.557px" y="223.764px" style="font-family:'Arial-BoldMT', 'Arial', sans-serif;font-weight:700;font-size:150px;fill:rgb(0,122,255);">Fiat Geld is een Piramidespel</text>
    </g>
</svg>
